<svg width="20" height="20" viewBox="0 0 20 20" fill="none" xmlns="http://www.w3.org/2000/svg">
<path d="M11.095 9.91676L14.0408 6.97009C14.1204 6.89322 14.1839 6.80127 14.2276 6.6996C14.2712 6.59793 14.2942 6.48858 14.2952 6.37793C14.2961 6.26728 14.2751 6.15755 14.2332 6.05513C14.1913 5.95272 14.1294 5.85967 14.0511 5.78143C13.9729 5.70319 13.8798 5.64131 13.7774 5.59941C13.675 5.55751 13.5653 5.53642 13.4546 5.53738C13.344 5.53835 13.2346 5.56134 13.133 5.60501C13.0313 5.64868 12.9393 5.71217 12.8625 5.79176L9.9158 8.73759L6.96997 5.79176C6.8931 5.71217 6.80115 5.64868 6.69948 5.60501C6.59781 5.56134 6.48846 5.53835 6.37781 5.53738C6.26716 5.53642 6.15742 5.55751 6.05501 5.59941C5.9526 5.64131 5.85955 5.70319 5.78131 5.78143C5.70307 5.85967 5.64119 5.95272 5.59929 6.05513C5.55739 6.15755 5.5363 6.26728 5.53726 6.37793C5.53822 6.48858 5.56121 6.59793 5.60489 6.6996C5.64856 6.80127 5.71205 6.89322 5.79164 6.97009L8.73747 9.91593L5.79164 12.8626C5.71205 12.9395 5.64856 13.0314 5.60489 13.1331C5.56121 13.2348 5.53822 13.3441 5.53726 13.4548C5.5363 13.5654 5.55739 13.6751 5.59929 13.7776C5.64119 13.88 5.70307 13.973 5.78131 14.0513C5.85955 14.1295 5.9526 14.1914 6.05501 14.2333C6.15742 14.2752 6.26716 14.2963 6.37781 14.2953C6.48846 14.2943 6.59781 14.2714 6.69948 14.2277C6.80115 14.184 6.8931 14.1205 6.96997 14.0409L9.9158 11.0951L12.8625 14.0409C12.9393 14.1205 13.0313 14.184 13.133 14.2277C13.2346 14.2714 13.344 14.2943 13.4546 14.2953C13.5653 14.2963 13.675 14.2752 13.7774 14.2333C13.8798 14.1914 13.9729 14.1295 14.0511 14.0513C14.1294 13.973 14.1913 13.88 14.2332 13.7776C14.2751 13.6751 14.2961 13.5654 14.2952 13.4548C14.2942 13.3441 14.2712 13.2348 14.2276 13.1331C14.1839 13.0314 14.1204 12.9395 14.0408 12.8626L11.095 9.91593V9.91676Z" fill="#748292"/>
</svg>
